# xmcd
#
# Track frame offsets:
#	182
#	13732
#	23607
#	32980
#	47205
#	61222
#	75760
#	86185
#	96137
#	111090
#	126575
#	141160
#	153827
#	164162
#	177802
#	186897
#	197005
#	207327
#	220255
#	232402
#	243535
#	253700
#	265682
#	279512
#	290767
#
# Disc length: 4040
#
# Revision: 2
# Processed by: cddbd v1.5.1PL0 Copyright (c) Steve Scherf et al.
# Submitted via: CDex 1.30
# Normalized: r1:TDELIM( - )
#
DISCID=750fc619
DTITLE=Various Artist - Bloodstains on the Wall
DYEAR=1952
DGENRE=Blues
TTITLE0=Honeboy - Bloodstains on the Wall
TTITLE1=Honeboy - You Better Move on Away from Here
TTITLE2=Honeboy - Have You a Match
TTITLE3=Pine Bluff Pete - Uncle Sam Blues
TTITLE4=Pine Bluff Pete - A Woman Acts Funny
TTITLE5=Clarence London - Goin' Back To Mama
TTITLE6=Clarence London - Got a Letter This Morning
TTITLE7=Clarence London - Want to Boogie-Woogie
TTITLE8=Big Joe Williams - Ride My New Car with Me
TTITLE9=Big Joe Williams - Rather Be Sloppy Drunk
TTITLE10=Country Joe Bledsoe - Dial 110 Blues
TTITLE11=Country Joe Bledsoe - Hollywood Boogie
TTITLE12=Country Joe Bledsoe - One Thing My Baby Likes
TTITLE13=Country Joe Bledsoe - Stormin' and Rainin'
TTITLE14=Little Temple - I Ate the Wrong Part
TTITLE15=Little Temple - What a Mistake
TTITLE16=Little Temple - Mean and Evil
TTITLE17=Little Temple - Cold Love
TTITLE18=Pete McKinley - Black Snake Blues
TTITLE19=Pete McKinley - Cryin' for My Baby
TTITLE20=Pete McKinley - Looka Here Boy
TTITLE21=Pete McKinley - Whistling Blues
TTITLE22=Pete McKinley - Don't Want Me Blues
TTITLE23=Pete McKinley - David's Boogie
TTITLE24=Pete McKinley - Sail On, Little Girl
EXTD=\n\nYEAR: 1952  ID3G:   0
EXTT0=
EXTT1=
EXTT2=
EXTT3=
EXTT4=
EXTT5=
EXTT6=
EXTT7=
EXTT8=
EXTT9=
EXTT10=
EXTT11=
EXTT12=
EXTT13=
EXTT14=
EXTT15=
EXTT16=
EXTT17=
EXTT18=
EXTT19=
EXTT20=
EXTT21=
EXTT22=
EXTT23=
EXTT24=
PLAYORDER=
